<svg width="44" height="44" viewBox="0 0 44 44" fill="none" xmlns="http://www.w3.org/2000/svg">
<g filter="url(#filter0_d_605_307)">
<rect x="6" y="2" width="32" height="32" rx="6" fill="white"/>
</g>
<path d="M33.5989 16.5933C33.5989 11.3799 28.3726 7.13838 21.9478 7.13838C15.5241 7.13838 10.2971 11.3799 10.2971 16.5932C10.2971 21.2671 14.4421 25.1812 20.041 25.9214C20.4205 26.0032 20.9369 26.1716 21.0675 26.4959C21.1849 26.7904 21.1444 27.2519 21.1051 27.5493C21.1051 27.5493 20.9683 28.3714 20.9389 28.5466C20.888 28.8412 20.7047 29.6987 21.9478 29.1748C23.1915 28.6507 28.6578 25.2238 31.1021 22.4104H31.1017C32.7901 20.5588 33.5989 18.6799 33.5989 16.5933Z" fill="#06C755"/>
<path d="M19.5807 14.074H18.7635C18.6392 14.074 18.5368 14.1761 18.5364 14.3006V19.3772C18.5366 19.5015 18.639 19.6038 18.7633 19.6038H18.7635H19.5807C19.7061 19.6038 19.8076 19.5023 19.8076 19.3772V14.3006C19.8074 14.1762 19.705 14.074 19.5807 14.074ZM25.2058 14.074H24.3885C24.2642 14.074 24.1618 14.1762 24.1617 14.3006V17.3166L21.8353 14.1748C21.8298 14.1668 21.824 14.1592 21.8176 14.1518L21.8161 14.1505C21.8117 14.1455 21.8072 14.1408 21.8023 14.1364L21.7982 14.1326C21.7944 14.1291 21.7904 14.1256 21.7861 14.1226C21.7844 14.1207 21.7824 14.1194 21.7804 14.1178C21.7764 14.1152 21.7725 14.1122 21.7684 14.1098C21.7663 14.1082 21.7639 14.1069 21.7616 14.1057C21.7575 14.1034 21.7535 14.1009 21.7495 14.0988C21.7471 14.0978 21.7447 14.0964 21.7424 14.0954C21.7381 14.0934 21.7338 14.0915 21.7293 14.09L21.722 14.0872C21.7175 14.0856 21.713 14.0842 21.7085 14.083L21.7007 14.0808L21.6876 14.0779C21.6844 14.0774 21.6812 14.077 21.6781 14.0768C21.6741 14.0759 21.6701 14.0756 21.666 14.0751C21.6621 14.0748 21.6583 14.0748 21.6543 14.0746C21.6515 14.0746 21.6492 14.0741 21.6463 14.0741H20.8293C20.705 14.0741 20.6025 14.1761 20.6021 14.3006V19.3772C20.6022 19.5015 20.7046 19.6038 20.8289 19.6038H20.8293H21.6463H21.6467C21.7711 19.6038 21.8733 19.5015 21.8736 19.3772V16.3621L24.2028 19.5079C24.2189 19.5308 24.2393 19.5503 24.2627 19.5656C24.2674 19.5686 24.272 19.5716 24.2768 19.5743C24.2789 19.5756 24.2809 19.5765 24.2832 19.5776C24.2866 19.5796 24.2903 19.5814 24.294 19.5829L24.3051 19.5877C24.3073 19.5885 24.3095 19.5895 24.3117 19.59C24.3172 19.5921 24.3219 19.5937 24.3273 19.5951C24.3283 19.5951 24.3294 19.5957 24.3306 19.5959C24.3491 19.6008 24.3684 19.6038 24.3885 19.6038H25.2058C25.3313 19.6038 25.4327 19.5023 25.4327 19.3772V14.3006C25.4326 14.1762 25.3302 14.074 25.2058 14.074ZM17.6108 18.3324H15.3903V14.3008C15.3903 14.1765 15.288 14.0741 15.1635 14.074H14.3461C14.2217 14.074 14.1193 14.1764 14.1193 14.3008V19.3771C14.1193 19.4372 14.1432 19.4949 14.1859 19.5372L14.1892 19.5404C14.2313 19.5812 14.2874 19.6039 14.346 19.6038H17.6108C17.7353 19.6036 17.8374 19.501 17.8373 19.3767V18.5595C17.8373 18.4341 17.7362 18.3327 17.6108 18.3327M29.7189 15.3451C29.8442 15.3451 29.9454 15.2437 29.9454 15.1182V14.301C29.9455 14.1767 29.8433 14.0742 29.7189 14.074H26.4538C26.3926 14.074 26.3375 14.0985 26.2964 14.138C26.2955 14.1389 26.2944 14.1396 26.2938 14.1406C26.2924 14.1419 26.2913 14.1432 26.2903 14.1446C26.2499 14.1866 26.2272 14.2426 26.2272 14.3008V19.3771C26.2272 19.4388 26.2525 19.4978 26.2972 19.5404C26.3392 19.581 26.3954 19.6038 26.4538 19.6038H29.7189C29.8432 19.6036 29.9454 19.5013 29.9454 19.377V18.5595C29.9454 18.4352 29.8432 18.3328 29.7189 18.3327H27.4985V17.4744H29.7189C29.8442 17.4744 29.9454 17.3728 29.9454 17.2475V16.4302C29.9455 16.3058 29.8433 16.2034 29.7189 16.2031H27.4985V15.3452L29.7189 15.3451Z" fill="white"/>
<defs>
<filter id="filter0_d_605_307" x="0" y="0" width="44" height="44" filterUnits="userSpaceOnUse" color-interpolation-filters="sRGB">
<feFlood flood-opacity="0" result="BackgroundImageFix"/>
<feColorMatrix in="SourceAlpha" type="matrix" values="0 0 0 0 0 0 0 0 0 0 0 0 0 0 0 0 0 0 127 0" result="hardAlpha"/>
<feOffset dy="4"/>
<feGaussianBlur stdDeviation="3"/>
<feComposite in2="hardAlpha" operator="out"/>
<feColorMatrix type="matrix" values="0 0 0 0 0 0 0 0 0 0 0 0 0 0 0 0 0 0 0.25 0"/>
<feBlend mode="normal" in2="BackgroundImageFix" result="effect1_dropShadow_605_307"/>
<feBlend mode="normal" in="SourceGraphic" in2="effect1_dropShadow_605_307" result="shape"/>
</filter>
</defs>
</svg>
